solid AssimpScene
 facet normal -0.933013 -0.333494 0.135158
  outer loop
  vertex 162.995 -6.64272 10.4459
  vertex 163.033 -5.47492 13.5859
  vertex 161.975 -3.78778 10.4459
  endloop
 endfacet

 facet normal -0.656975 -0.702797 -0.272876
  outer loop
  vertex 156.636 1.20271 10.4459
  vertex 161.975 -3.78778 10.4459
  vertex 159.919 -3.27407 14.0722
  endloop
 endfacet

 facet normal -0.13788 -0.98206 -0.128632
  outer loop
  vertex 159.919 -3.27407 14.0722
  vertex 161.425 -4.3979 21.0387
  vertex 157.044 -2.97802 14.8943
  endloop
 endfacet

 facet normal -0.0173041 -0.976814 -0.213388
  outer loop
  vertex 157.044 -2.97802 14.8943
  vertex 161.425 -4.3979 21.0387
  vertex 159.23 -4.66745 22.4506
  endloop
 endfacet

 facet normal -0.416093 -0.90608 -0.0767191
  outer loop
  vertex 164.649 -7.63945 13.2512
  vertex 162.995 -6.64272 10.4459
  vertex 165.866 -7.96074 10.4459
  endloop
 endfacet

 facet normal 0.659181 -0.702063 -0.269423
  outer loop
  vertex 165.866 -7.96074 10.4459
  vertex 170.498 -3.61121 10.4459
  vertex 168.045 -7.00411 13.2865
  endloop
 endfacet

 facet normal -0.0446232 -0.330835 0.942633
  outer loop
  vertex 168.045 -7.00411 13.2865
  vertex 168.939 -4.83911 14.0886
  vertex 163.033 -5.47492 13.5859
  endloop
 endfacet

 facet normal 0.869114 -0.441382 0.22321
  outer loop
  vertex 170.498 -3.61121 10.4459
  vertex 168.939 -4.83911 14.0886
  vertex 168.045 -7.00411 13.2865
  endloop
 endfacet

 facet normal 0 0 -1
  outer loop
  vertex 161.975 -3.78778 10.4459
  vertex 170.498 -3.61121 10.4459
  vertex 162.995 -6.64272 10.4459
  endloop
 endfacet

 facet normal -0.681893 -0.72996 -0.0466852
  outer loop
  vertex 172.49 -10.5616 33.0111
  vertex 166.48 -5.16097 36.3572
  vertex 170.332 -8.23157 28.1074
  endloop
 endfacet

 facet normal 0.161738 -0.772947 0.613509
  outer loop
  vertex 164.038 -7.10583 20.2125
  vertex 167.079 -4.82125 22.289
  vertex 164.005 -4.19645 23.8866
  endloop
 endfacet

 facet normal -0.189124 -0.98175 0.0199921
  outer loop
  vertex 167.079 -4.82125 22.289
  vertex 167.628 -4.80596 28.2259
  vertex 164.005 -4.19645 23.8866
  endloop
 endfacet

 facet normal 0.183166 -0.982977 -0.0143813
  outer loop
  vertex 167.079 -4.82125 22.289
  vertex 171.031 -4.02592 18.2528
  vertex 167.628 -4.80596 28.2259
  endloop
 endfacet

 facet normal -0.946686 0.0333648 -0.320425
  outer loop
  vertex 171.031 -4.02592 18.2528
  vertex 171.802 -7.33107 15.6301
  vertex 167.628 -4.80596 28.2259
  endloop
 endfacet

 facet normal -0.535821 -0.784811 0.311396
  outer loop
  vertex 164.005 -4.19645 23.8866
  vertex 164.896 0.564853 37.4203
  vertex 160.034 0.986489 30.1158
  endloop
 endfacet

 facet normal -0.776066 -0.617119 0.129944
  outer loop
  vertex 170.332 -8.23157 28.1074
  vertex 164.896 0.564853 37.4203
  vertex 167.628 -4.80596 28.2259
  endloop
 endfacet

 facet normal -0.91498 -0.186638 -0.357739
  outer loop
  vertex 170.332 -8.23157 28.1074
  vertex 166.48 -5.16097 36.3572
  vertex 164.896 0.564853 37.4203
  endloop
 endfacet

 facet normal -0.870132 -0.275431 -0.408666
  outer loop
  vertex 169.849 -4.94823 41.6653
  vertex 165.609 -5.41584 51.0084
  vertex 167.788 -1.85779 43.9699
  endloop
 endfacet

 facet normal -0.689864 -0.636485 -0.344927
  outer loop
  vertex 169.849 -4.94823 41.6653
  vertex 171.262 -12.01 51.8698
  vertex 165.609 -5.41584 51.0084
  endloop
 endfacet

 facet normal -0.771945 0.127518 0.622768
  outer loop
  vertex 167.945 -7.23633 54.2766
  vertex 169.297 -2.74615 55.0336
  vertex 165.609 -5.41584 51.0084
  endloop
 endfacet

 facet normal -0.424617 -0.0246905 0.905036
  outer loop
  vertex 171.546 -6.93292 55.9747
  vertex 169.297 -2.74615 55.0336
  vertex 167.945 -7.23633 54.2766
  endloop
 endfacet

 facet normal 0.456861 0.73489 0.501213
  outer loop
  vertex 164.908 -2.19901 58.232
  vertex 169.297 -2.74615 55.0336
  vertex 167.115 0.684263 51.993
  endloop
 endfacet

 facet normal -0.911844 -0.366547 -0.18489
  outer loop
  vertex 165.609 -5.41584 51.0084
  vertex 164.288 -4.96711 56.6322
  vertex 163.188 -1.44657 55.0753
  endloop
 endfacet

 facet normal -0.422169 0.00075208 0.906517
  outer loop
  vertex 156.342 2.27636 12.1747
  vertex 158.47 1.93921 13.1661
  vertex 158.653 6.45507 13.2477
  endloop
 endfacet

 facet normal -0.876283 0.327955 -0.352949
  outer loop
  vertex 156.636 1.20271 10.4459
  vertex 156.342 2.27636 12.1747
  vertex 159.034 9.9542 12.6244
  endloop
 endfacet

 facet normal -0.685474 0.199351 0.700275
  outer loop
  vertex 158.653 6.45507 13.2477
  vertex 159.034 9.9542 12.6244
  vertex 156.342 2.27636 12.1747
  endloop
 endfacet

 facet normal -0.959291 -0.204107 -0.195197
  outer loop
  vertex 159.47 -2.64356 18.7472
  vertex 157.698 4.31637 20.1779
  vertex 158.653 6.45507 13.2477
  endloop
 endfacet

 facet normal -0.633714 0.656879 0.408555
  outer loop
  vertex 167.792 13.3488 20.7513
  vertex 159.856 12.1016 10.4459
  vertex 159.034 9.9542 12.6244
  endloop
 endfacet

 facet normal -0.380545 -0.0873464 0.920628
  outer loop
  vertex 168.851 3.71494 39.3538
  vertex 162.637 4.67089 36.8759
  vertex 164.896 0.564853 37.4203
  endloop
 endfacet

 facet normal -0.914396 -0.0815312 0.396526
  outer loop
  vertex 160.034 0.986489 30.1158
  vertex 162.637 4.67089 36.8759
  vertex 160.921 8.18293 33.6425
  endloop
 endfacet

 facet normal -0.993921 0.0985246 0.0491313
  outer loop
  vertex 160.034 0.986489 30.1158
  vertex 160.921 8.18293 33.6425
  vertex 159.919 1.55591 26.661
  endloop
 endfacet

 facet normal -0.776191 0.589265 0.224262
  outer loop
  vertex 159.455 5.84042 24.8903
  vertex 163.325 11.0813 24.5138
  vertex 159.034 9.9542 12.6244
  endloop
 endfacet

 facet normal -0.874793 0.449509 0.180774
  outer loop
  vertex 157.698 4.31637 20.1779
  vertex 159.455 5.84042 24.8903
  vertex 159.034 9.9542 12.6244
  endloop
 endfacet

 facet normal -0.805039 0.592746 -0.0237826
  outer loop
  vertex 159.455 5.84042 24.8903
  vertex 160.921 8.18293 33.6425
  vertex 163.325 11.0813 24.5138
  endloop
 endfacet

 facet normal -0.147784 0.914815 0.375864
  outer loop
  vertex 163.325 11.0813 24.5138
  vertex 168.098 11.769 24.7165
  vertex 167.792 13.3488 20.7513
  endloop
 endfacet

 facet normal -0.147514 0.975349 0.164113
  outer loop
  vertex 163.325 11.0813 24.5138
  vertex 166.588 9.72749 35.4927
  vertex 168.098 11.769 24.7165
  endloop
 endfacet

 facet normal -0.320109 0.92402 0.209085
  outer loop
  vertex 160.921 8.18293 33.6425
  vertex 166.588 9.72749 35.4927
  vertex 163.325 11.0813 24.5138
  endloop
 endfacet

 facet normal 0.345837 0.911853 0.22118
  outer loop
  vertex 172.857 8.91358 29.0459
  vertex 168.098 11.769 24.7165
  vertex 166.588 9.72749 35.4927
  endloop
 endfacet

 facet normal 0.491088 0.593985 0.637193
  outer loop
  vertex 166.588 9.72749 35.4927
  vertex 168.851 3.71494 39.3538
  vertex 171.872 5.1012 35.7332
  endloop
 endfacet

 facet normal -0.226122 0.73159 0.643152
  outer loop
  vertex 167.115 0.684263 51.993
  vertex 172.971 0.892219 53.8155
  vertex 169.864 3.26615 50.0225
  endloop
 endfacet

 facet normal -0.394153 0.905048 -0.159787
  outer loop
  vertex 168.394 1.33199 42.6929
  vertex 169.864 3.26615 50.0225
  vertex 172.742 3.12539 42.1244
  endloop
 endfacet

 facet normal -0.999205 0.0223894 0.032997
  outer loop
  vertex 171.581 -9.56287 10.4459
  vertex 171.802 -7.33107 15.6301
  vertex 171.718 -3.42658 10.4459
  endloop
 endfacet

 facet normal -0.302553 -0.934778 0.18615
  outer loop
  vertex 176.084 -11.7357 10.4459
  vertex 176.25 -11.1157 13.8293
  vertex 173.322 -10.2475 13.43
  endloop
 endfacet

 facet normal -0.175294 -0.649486 0.739891
  outer loop
  vertex 173.322 -10.2475 13.43
  vertex 175.957 -9.22051 14.956
  vertex 171.802 -7.33107 15.6301
  endloop
 endfacet

 facet normal -0.426588 -0.897104 -0.115007
  outer loop
  vertex 170.332 -8.23157 28.1074
  vertex 171.802 -7.33107 15.6301
  vertex 175.957 -9.22051 14.956
  endloop
 endfacet

 facet normal 0 0 -1
  outer loop
  vertex 171.718 -3.42658 10.4459
  vertex 174.019 9.3632 10.4459
  vertex 177.641 -1.33211 10.4459
  endloop
 endfacet

 facet normal 0 0 -1
  outer loop
  vertex 170.498 -3.61121 10.4459
  vertex 174.019 9.3632 10.4459
  vertex 171.718 -3.42658 10.4459
  endloop
 endfacet

 facet normal 0.842953 -0.535001 0.0565984
  outer loop
  vertex 176.084 -11.7357 10.4459
  vertex 178.277 -8.27991 10.4459
  vertex 176.25 -11.1157 13.8293
  endloop
 endfacet

 facet normal 0.35478 -0.780147 0.515269
  outer loop
  vertex 178.108 -7.35418 12.8653
  vertex 181.43 -7.44166 10.4459
  vertex 179.496 -5.75119 14.3371
  endloop
 endfacet

 facet normal 0.0475618 -0.907293 0.4178
  outer loop
  vertex 181.43 -7.44166 10.4459
  vertex 183.079 -5.85874 13.6957
  vertex 179.496 -5.75119 14.3371
  endloop
 endfacet

 facet normal 0.264533 0.865895 -0.424556
  outer loop
  vertex 177.2 -0.460917 11.9482
  vertex 183.04 -1.78013 12.8963
  vertex 177.641 -1.33211 10.4459
  endloop
 endfacet

 facet normal 0 0 -1
  outer loop
  vertex 182.82 -2.14577 10.4459
  vertex 171.718 -3.42658 10.4459
  vertex 177.641 -1.33211 10.4459
  endloop
 endfacet

 facet normal 0 0 -1
  outer loop
  vertex 171.718 -3.42658 10.4459
  vertex 182.82 -2.14577 10.4459
  vertex 183.688 -5.07085 10.4459
  endloop
 endfacet

 facet normal 0.160801 -0.282763 0.945615
  outer loop
  vertex 183.079 -5.85874 13.6957
  vertex 181.21 -3.87917 14.6054
  vertex 179.496 -5.75119 14.3371
  endloop
 endfacet

 facet normal 0 0 -1
  outer loop
  vertex 178.277 -8.27991 10.4459
  vertex 171.718 -3.42658 10.4459
  vertex 183.688 -5.07085 10.4459
  endloop
 endfacet

 facet normal 0.755253 0.622289 -0.205789
  outer loop
  vertex 178.508 -0.375529 15.2837
  vertex 179.873 0.948929 24.2982
  vertex 181.21 -3.87917 14.6054
  endloop
 endfacet

 facet normal 0.236939 0.964388 -0.11754
  outer loop
  vertex 178.508 -0.375529 15.2837
  vertex 183.04 -1.78013 12.8963
  vertex 177.2 -0.460917 11.9482
  endloop
 endfacet

 facet normal -0.0109976 -0.967133 0.254034
  outer loop
  vertex 175.01 -9.49228 23.5103
  vertex 174.496 -8.18935 28.4484
  vertex 170.332 -8.23157 28.1074
  endloop
 endfacet

 facet normal -0.11109 -0.978825 -0.171931
  outer loop
  vertex 174.964 -2.09952 17.8984
  vertex 177.514 -3.97191 26.9105
  vertex 174.456 -2.82489 22.356
  endloop
 endfacet

 facet normal 0.0455167 -0.894374 -0.444998
  outer loop
  vertex 174.496 -8.18935 28.4484
  vertex 172.49 -10.5616 33.0111
  vertex 170.332 -8.23157 28.1074
  endloop
 endfacet

 facet normal 0.447756 -0.858606 -0.249621
  outer loop
  vertex 172.49 -10.5616 33.0111
  vertex 174.496 -8.18935 28.4484
  vertex 178.538 -8.35216 36.26
  endloop
 endfacet

 facet normal 0.577561 -0.610823 -0.541588
  outer loop
  vertex 174.456 -2.82489 22.356
  vertex 177.514 -3.97191 26.9105
  vertex 174.496 -8.18935 28.4484
  endloop
 endfacet

 facet normal 0.706582 -0.676639 0.207126
  outer loop
  vertex 179.496 -5.75119 14.3371
  vertex 181.21 -3.87917 14.6054
  vertex 177.514 -3.97191 26.9105
  endloop
 endfacet

 facet normal 0.44006 -0.889159 0.125473
  outer loop
  vertex 180.774 -2.02722 29.2583
  vertex 177.514 -3.97191 26.9105
  vertex 181.21 -3.87917 14.6054
  endloop
 endfacet

 facet normal 0.826866 0.535701 0.171219
  outer loop
  vertex 177.815 2.38077 29.7571
  vertex 180.774 -2.02722 29.2583
  vertex 179.873 0.948929 24.2982
  endloop
 endfacet

 facet normal 0.924134 0.366601 0.10761
  outer loop
  vertex 178.759 0.429734 38.1884
  vertex 181.184 -4.36103 33.6881
  vertex 180.774 -2.02722 29.2583
  endloop
 endfacet

 facet normal 0.992328 0.0959134 0.0780085
  outer loop
  vertex 174.456 -2.82489 22.356
  vertex 174.496 -8.18935 28.4484
  vertex 175.01 -9.49228 23.5103
  endloop
 endfacet

 facet normal 0.996065 -0.00792212 -0.0882734
  outer loop
  vertex 182.82 -2.14577 10.4459
  vertex 183.04 -1.78013 12.8963
  vertex 183.079 -5.85874 13.6957
  endloop
 endfacet

 facet normal 0.930428 0.275893 0.241218
  outer loop
  vertex 182.82 -2.14577 10.4459
  vertex 183.079 -5.85874 13.6957
  vertex 183.688 -5.07085 10.4459
  endloop
 endfacet

 facet normal -0.621181 -0.78356 0.012971
  outer loop
  vertex 174.964 -2.09952 17.8984
  vertex 179.496 -5.75119 14.3371
  vertex 177.514 -3.97191 26.9105
  endloop
 endfacet

 facet normal -0.367677 -0.82743 0.424468
  outer loop
  vertex 172.49 -10.5616 33.0111
  vertex 173.706 -7.30462 40.4129
  vertex 169.849 -4.94823 41.6653
  endloop
 endfacet

 facet normal -0.0528462 -0.765979 -0.64069
  outer loop
  vertex 173.454 -7.26694 44.102
  vertex 175.059 -11.6977 49.2668
  vertex 173.111 -12.1544 49.9735
  endloop
 endfacet

 facet normal 0.653383 0.754869 -0.057131
  outer loop
  vertex 177.592 0.114214 48.5058
  vertex 176.784 0.265655 41.2574
  vertex 174.766 2.70616 50.431
  endloop
 endfacet

 facet normal 0.74313 -0.632775 -0.217608
  outer loop
  vertex 178.239 -6.80422 30.7372
  vertex 181.184 -4.36103 33.6881
  vertex 178.538 -8.35216 36.26
  endloop
 endfacet

 facet normal 0.989379 -0.0922693 -0.112319
  outer loop
  vertex 176.277 -5.20223 41.2838
  vertex 176.784 0.265655 41.2574
  vertex 177.592 0.114214 48.5058
  endloop
 endfacet

 facet normal 0.989355 -0.0776485 -0.123078
  outer loop
  vertex 177.592 0.114214 48.5058
  vertex 177.145 -8.05322 50.0649
  vertex 176.277 -5.20223 41.2838
  endloop
 endfacet

 facet normal 0.840307 -0.0753048 0.536855
  outer loop
  vertex 178.759 0.429734 38.1884
  vertex 176.784 0.265655 41.2574
  vertex 176.277 -5.20223 41.2838
  endloop
 endfacet

 facet normal 0.131828 -0.970391 0.202393
  outer loop
  vertex 171.262 -12.01 51.8698
  vertex 173.111 -12.1544 49.9735
  vertex 176.619 -11.1085 52.7034
  endloop
 endfacet

 facet normal -0.595324 -0.397557 0.698239
  outer loop
  vertex 171.262 -12.01 51.8698
  vertex 173.675 -11.25 54.3601
  vertex 170.865 -7.97866 53.8268
  endloop
 endfacet

 facet normal 0.49163 -0.103339 0.864651
  outer loop
  vertex 176.619 -11.1085 52.7034
  vertex 173.859 -6.72434 54.7966
  vertex 173.675 -11.25 54.3601
  endloop
 endfacet

 facet normal 0.246472 -0.967643 0.0540331
  outer loop
  vertex 173.111 -12.1544 49.9735
  vertex 175.059 -11.6977 49.2668
  vertex 176.619 -11.1085 52.7034
  endloop
 endfacet

 facet normal -0.276232 -0.0811764 0.957657
  outer loop
  vertex 173.859 -6.72434 54.7966
  vertex 170.865 -7.97866 53.8268
  vertex 173.675 -11.25 54.3601
  endloop
 endfacet

 facet normal -0.173368 0.465629 0.867833
  outer loop
  vertex 169.297 -2.74615 55.0336
  vertex 174.144 -1.86861 55.5311
  vertex 172.971 0.892219 53.8155
  endloop
 endfacet

 facet normal -0.104356 0.0126572 0.994459
  outer loop
  vertex 174.144 -1.86861 55.5311
  vertex 169.297 -2.74615 55.0336
  vertex 175.808 -4.90504 55.7443
  endloop
 endfacet

 facet normal -0.041258 0.197966 0.97934
  outer loop
  vertex 175.808 -4.90504 55.7443
  vertex 169.297 -2.74615 55.0336
  vertex 171.546 -6.93292 55.9747
  endloop
 endfacet

 facet normal 0.949225 -0.22692 0.217895
  outer loop
  vertex 178.333 -1.28299 51.9433
  vertex 177.312 -4.97192 52.5461
  vertex 177.145 -8.05322 50.0649
  endloop
 endfacet

 facet normal 0.963527 -0.100114 -0.248179
  outer loop
  vertex 177.145 -8.05322 50.0649
  vertex 177.592 0.114214 48.5058
  vertex 178.333 -1.28299 51.9433
  endloop
 endfacet

 facet normal 0.531878 0.407949 0.74208
  outer loop
  vertex 178.333 -1.28299 51.9433
  vertex 176.102 -0.622585 53.1793
  vertex 175.808 -4.90504 55.7443
  endloop
 endfacet

 facet normal 0.0798716 -0.812076 0.578059
  outer loop
  vertex 176.102 -0.622585 53.1793
  vertex 178.333 -1.28299 51.9433
  vertex 178.516 2.61811 57.3983
  endloop
 endfacet

 facet normal 0.575486 -0.765872 0.286804
  outer loop
  vertex 173.859 -6.72434 54.7966
  vertex 177.312 -4.97192 52.5461
  vertex 175.808 -4.90504 55.7443
  endloop
 endfacet

 facet normal 0.602351 0.379312 0.70235
  outer loop
  vertex 174.144 -1.86861 55.5311
  vertex 175.808 -4.90504 55.7443
  vertex 176.102 -0.622585 53.1793
  endloop
 endfacet

 facet normal 0.0332161 -0.538706 0.841839
  outer loop
  vertex 177.2 -0.460917 11.9482
  vertex 177.5 4.3859 15.0379
  vertex 174.794 -0.74856 11.859
  endloop
 endfacet

 facet normal 0.883597 -0.46823 0.00416767
  outer loop
  vertex 177.5 4.3859 15.0379
  vertex 175.275 0.205388 17.0709
  vertex 174.794 -0.74856 11.859
  endloop
 endfacet

 facet normal 0.403967 0.88714 -0.223143
  outer loop
  vertex 168.539 12.9017 14.5941
  vertex 175.963 9.98706 16.4467
  vertex 174.019 9.3632 10.4459
  endloop
 endfacet

 facet normal 0.370216 0.928672 -0.0225406
  outer loop
  vertex 167.792 13.3488 20.7513
  vertex 175.963 9.98706 16.4467
  vertex 168.539 12.9017 14.5941
  endloop
 endfacet

 facet normal 0.975111 -0.025433 -0.220253
  outer loop
  vertex 178.644 5.74352 10.4459
  vertex 179.312 4.90156 13.5018
  vertex 178.55 2.13215 10.4459
  endloop
 endfacet

 facet normal 0.903907 -0.418074 0.0903614
  outer loop
  vertex 178.55 2.13215 10.4459
  vertex 178.2 2.15545 14.0515
  vertex 177.2 -0.460917 11.9482
  endloop
 endfacet

 facet normal 0.614194 0.78489 0.0819354
  outer loop
  vertex 174.019 9.3632 10.4459
  vertex 179.312 4.90156 13.5018
  vertex 178.644 5.74352 10.4459
  endloop
 endfacet

 facet normal 0.888307 -0.233046 0.395727
  outer loop
  vertex 177.641 -1.33211 10.4459
  vertex 178.55 2.13215 10.4459
  vertex 177.2 -0.460917 11.9482
  endloop
 endfacet

 facet normal 0.998175 -0.0592324 -0.0117251
  outer loop
  vertex 177.466 3.15726 18.3752
  vertex 177.5 4.3859 15.0379
  vertex 177.699 6.54832 21.075
  endloop
 endfacet

 facet normal 0.867473 -0.344968 0.358453
  outer loop
  vertex 177.466 3.15726 18.3752
  vertex 177.699 6.54832 21.075
  vertex 175.349 2.40747 22.7788
  endloop
 endfacet

 facet normal 0.661519 -0.119734 0.740308
  outer loop
  vertex 177.5 4.3859 15.0379
  vertex 178.2 2.15545 14.0515
  vertex 179.312 4.90156 13.5018
  endloop
 endfacet

 facet normal 0.946034 0.293918 -0.1365
  outer loop
  vertex 175.963 9.98706 16.4467
  vertex 177.699 6.54832 21.075
  vertex 177.5 4.3859 15.0379
  endloop
 endfacet

 facet normal -0.40611 -0.473237 0.781742
  outer loop
  vertex 178.2 2.15545 14.0515
  vertex 177.5 4.3859 15.0379
  vertex 177.2 -0.460917 11.9482
  endloop
 endfacet

 facet normal 0.889233 0.324977 -0.321956
  outer loop
  vertex 174.019 9.3632 10.4459
  vertex 175.963 9.98706 16.4467
  vertex 177.5 4.3859 15.0379
  endloop
 endfacet

 facet normal 0.893899 0.433166 0.115377
  outer loop
  vertex 174.148 7.53015 24.2423
  vertex 172.857 8.91358 29.0459
  vertex 175.074 3.66502 31.5808
  endloop
 endfacet

 facet normal 0.755841 0.514642 0.404782
  outer loop
  vertex 171.872 5.1012 35.7332
  vertex 175.074 3.66502 31.5808
  vertex 172.857 8.91358 29.0459
  endloop
 endfacet

 facet normal 0.553255 0.748861 0.36485
  outer loop
  vertex 175.963 9.98706 16.4467
  vertex 168.098 11.769 24.7165
  vertex 174.148 7.53015 24.2423
  endloop
 endfacet

 facet normal 0.490705 0.821774 0.289648
  outer loop
  vertex 168.098 11.769 24.7165
  vertex 175.963 9.98706 16.4467
  vertex 167.792 13.3488 20.7513
  endloop
 endfacet

 facet normal 0.363292 0.925645 -0.105829
  outer loop
  vertex 175.074 3.66502 31.5808
  vertex 177.815 2.38077 29.7571
  vertex 179.873 0.948929 24.2982
  endloop
 endfacet

 facet normal 0.726001 -0.644685 0.239383
  outer loop
  vertex 175.275 0.205388 17.0709
  vertex 177.466 3.15726 18.3752
  vertex 175.349 2.40747 22.7788
  endloop
 endfacet

 facet normal 0.502304 0.858058 -0.106897
  outer loop
  vertex 175.349 2.40747 22.7788
  vertex 175.074 3.66502 31.5808
  vertex 178.508 -0.375529 15.2837
  endloop
 endfacet

 facet normal 0.579858 0.686448 0.43881
  outer loop
  vertex 172.742 3.12539 42.1244
  vertex 176.784 0.265655 41.2574
  vertex 175.491 4.35679 36.5661
  endloop
 endfacet

 facet normal 0.753088 0.654491 0.0670831
  outer loop
  vertex 175.491 4.35679 36.5661
  vertex 178.759 0.429734 38.1884
  vertex 177.815 2.38077 29.7571
  endloop
 endfacet

 facet normal 0.111564 0.993492 0.0229565
  outer loop
  vertex 169.864 3.26615 50.0225
  vertex 174.766 2.70616 50.431
  vertex 172.742 3.12539 42.1244
  endloop
 endfacet

 facet normal 0.538428 0.794879 -0.279754
  outer loop
  vertex 178.516 2.61811 57.3983
  vertex 177.592 0.114214 48.5058
  vertex 174.766 2.70616 50.431
  endloop
 endfacet

 facet normal -0.365772 0.907088 0.208333
  outer loop
  vertex 176.197 1.51862 58.1138
  vertex 178.516 2.61811 57.3983
  vertex 174.766 2.70616 50.431
  endloop
 endfacet

 facet normal 0.495078 -0.865182 -0.0797386
  outer loop
  vertex 168.939 -4.83911 14.0886
  vertex 170.498 -3.61121 10.4459
  vertex 171.031 -4.02592 18.2528
  endloop
 endfacet

 facet normal -0.159059 -0.822001 -0.546822
  outer loop
  vertex 171.262 -12.01 51.8698
  vertex 169.849 -4.94823 41.6653
  vertex 173.454 -7.26694 44.102
  endloop
 endfacet

 facet normal 0.569716 0.675028 0.468787
  outer loop
  vertex 172.857 8.91358 29.0459
  vertex 166.588 9.72749 35.4927
  vertex 171.872 5.1012 35.7332
  endloop
 endfacet

 facet normal -0.984122 -0.16513 -0.0650898
  outer loop
  vertex 156.636 1.20271 10.4459
  vertex 157.044 -2.97802 14.8943
  vertex 156.342 2.27636 12.1747
  endloop
 endfacet

 facet normal 0 0 -1
  outer loop
  vertex 161.975 -3.78778 10.4459
  vertex 156.636 1.20271 10.4459
  vertex 170.498 -3.61121 10.4459
  endloop
 endfacet

 facet normal -0.181839 0.743729 0.643274
  outer loop
  vertex 159.47 -2.64356 18.7472
  vertex 158.47 1.93921 13.1661
  vertex 156.342 2.27636 12.1747
  endloop
 endfacet

 facet normal -0.585066 -0.803619 -0.109066
  outer loop
  vertex 159.919 -3.27407 14.0722
  vertex 163.033 -5.47492 13.5859
  vertex 164.038 -7.10583 20.2125
  endloop
 endfacet

 facet normal -0.712695 -0.700273 0.0410296
  outer loop
  vertex 159.919 -3.27407 14.0722
  vertex 164.038 -7.10583 20.2125
  vertex 161.425 -4.3979 21.0387
  endloop
 endfacet

 facet normal 0.178684 -0.965755 0.188118
  outer loop
  vertex 165.866 -7.96074 10.4459
  vertex 168.045 -7.00411 13.2865
  vertex 164.649 -7.63945 13.2512
  endloop
 endfacet

 facet normal 0.540247 -0.832273 0.124319
  outer loop
  vertex 164.038 -7.10583 20.2125
  vertex 168.939 -4.83911 14.0886
  vertex 167.079 -4.82125 22.289
  endloop
 endfacet

 facet normal 0 0 -1
  outer loop
  vertex 170.498 -3.61121 10.4459
  vertex 165.866 -7.96074 10.4459
  vertex 162.995 -6.64272 10.4459
  endloop
 endfacet

 facet normal -0.5857 -0.779652 -0.221583
  outer loop
  vertex 161.975 -3.78778 10.4459
  vertex 163.033 -5.47492 13.5859
  vertex 159.919 -3.27407 14.0722
  endloop
 endfacet

 facet normal -0.401212 -0.813472 0.42106
  outer loop
  vertex 164.005 -4.19645 23.8866
  vertex 160.034 0.986489 30.1158
  vertex 161.425 -4.3979 21.0387
  endloop
 endfacet

 facet normal 0.0731968 0.979802 -0.186091
  outer loop
  vertex 174.794 -0.74856 11.859
  vertex 175.275 0.205388 17.0709
  vertex 178.508 -0.375529 15.2837
  endloop
 endfacet

 facet normal -0.119451 0.992609 0.0214009
  outer loop
  vertex 178.508 -0.375529 15.2837
  vertex 177.2 -0.460917 11.9482
  vertex 174.794 -0.74856 11.859
  endloop
 endfacet

 facet normal -0.784489 -0.365273 0.501152
  outer loop
  vertex 160.034 0.986489 30.1158
  vertex 164.896 0.564853 37.4203
  vertex 162.637 4.67089 36.8759
  endloop
 endfacet

 facet normal -0.592779 -0.696627 0.404133
  outer loop
  vertex 166.48 -5.16097 36.3572
  vertex 169.849 -4.94823 41.6653
  vertex 167.788 -1.85779 43.9699
  endloop
 endfacet

 facet normal -0.757175 -0.623838 0.193679
  outer loop
  vertex 167.945 -7.23633 54.2766
  vertex 165.609 -5.41584 51.0084
  vertex 171.262 -12.01 51.8698
  endloop
 endfacet

 facet normal -0.619848 0.731597 -0.28382
  outer loop
  vertex 167.788 -1.85779 43.9699
  vertex 163.188 -1.44657 55.0753
  vertex 167.115 0.684263 51.993
  endloop
 endfacet

 facet normal -0.911803 -0.175685 -0.371146
  outer loop
  vertex 167.788 -1.85779 43.9699
  vertex 165.609 -5.41584 51.0084
  vertex 163.188 -1.44657 55.0753
  endloop
 endfacet

 facet normal 0 0 -1
  outer loop
  vertex 170.498 -3.61121 10.4459
  vertex 156.636 1.20271 10.4459
  vertex 159.856 12.1016 10.4459
  endloop
 endfacet

 facet normal -0.978141 0.0359783 0.204807
  outer loop
  vertex 159.47 -2.64356 18.7472
  vertex 158.653 6.45507 13.2477
  vertex 158.47 1.93921 13.1661
  endloop
 endfacet

 facet normal -0.990087 0.0883437 -0.10919
  outer loop
  vertex 159.034 9.9542 12.6244
  vertex 158.653 6.45507 13.2477
  vertex 157.698 4.31637 20.1779
  endloop
 endfacet

 facet normal -0.409959 0.910016 0.0616853
  outer loop
  vertex 167.792 13.3488 20.7513
  vertex 159.034 9.9542 12.6244
  vertex 163.325 11.0813 24.5138
  endloop
 endfacet

 facet normal 0 0 -1
  outer loop
  vertex 159.856 12.1016 10.4459
  vertex 174.019 9.3632 10.4459
  vertex 170.498 -3.61121 10.4459
  endloop
 endfacet

 facet normal -0.940275 0.0379342 0.338295
  outer loop
  vertex 157.698 4.31637 20.1779
  vertex 159.919 1.55591 26.661
  vertex 159.455 5.84042 24.8903
  endloop
 endfacet

 facet normal -0.984111 -0.0346545 0.174139
  outer loop
  vertex 159.455 5.84042 24.8903
  vertex 159.919 1.55591 26.661
  vertex 160.921 8.18293 33.6425
  endloop
 endfacet

 facet normal -0.271609 0.445594 0.853038
  outer loop
  vertex 162.637 4.67089 36.8759
  vertex 168.851 3.71494 39.3538
  vertex 166.588 9.72749 35.4927
  endloop
 endfacet

 facet normal -0.389577 0.51357 0.76451
  outer loop
  vertex 160.921 8.18293 33.6425
  vertex 162.637 4.67089 36.8759
  vertex 166.588 9.72749 35.4927
  endloop
 endfacet

 facet normal -0.701555 0.711067 -0.046955
  outer loop
  vertex 167.115 0.684263 51.993
  vertex 169.864 3.26615 50.0225
  vertex 168.394 1.33199 42.6929
  endloop
 endfacet

 facet normal -0.739688 -0.606069 0.292477
  outer loop
  vertex 173.322 -10.2475 13.43
  vertex 171.802 -7.33107 15.6301
  vertex 171.581 -9.56287 10.4459
  endloop
 endfacet

 facet normal 0 0 -1
  outer loop
  vertex 171.581 -9.56287 10.4459
  vertex 178.277 -8.27991 10.4459
  vertex 176.084 -11.7357 10.4459
  endloop
 endfacet

 facet normal 0.149317 -0.986805 -0.0626084
  outer loop
  vertex 170.498 -3.61121 10.4459
  vertex 171.718 -3.42658 10.4459
  vertex 171.031 -4.02592 18.2528
  endloop
 endfacet

 facet normal 0.239567 -0.901081 0.361471
  outer loop
  vertex 178.277 -8.27991 10.4459
  vertex 181.43 -7.44166 10.4459
  vertex 178.108 -7.35418 12.8653
  endloop
 endfacet

 facet normal 0.723791 -0.6893 -0.0315052
  outer loop
  vertex 181.43 -7.44166 10.4459
  vertex 183.688 -5.07085 10.4459
  vertex 183.079 -5.85874 13.6957
  endloop
 endfacet

 facet normal 0.15322 0.97527 -0.159288
  outer loop
  vertex 177.641 -1.33211 10.4459
  vertex 183.04 -1.78013 12.8963
  vertex 182.82 -2.14577 10.4459
  endloop
 endfacet

 facet normal -0.983557 -0.151537 -0.0982494
  outer loop
  vertex 171.718 -3.42658 10.4459
  vertex 171.802 -7.33107 15.6301
  vertex 171.031 -4.02592 18.2528
  endloop
 endfacet

 facet normal 0.566457 0.16364 0.807681
  outer loop
  vertex 183.04 -1.78013 12.8963
  vertex 181.21 -3.87917 14.6054
  vertex 183.079 -5.85874 13.6957
  endloop
 endfacet

 facet normal -0.319052 -0.94548 -0.0653727
  outer loop
  vertex 175.957 -9.22051 14.956
  vertex 175.01 -9.49228 23.5103
  vertex 170.332 -8.23157 28.1074
  endloop
 endfacet

 facet normal 0.966086 0.213788 0.144818
  outer loop
  vertex 174.964 -2.09952 17.8984
  vertex 174.456 -2.82489 22.356
  vertex 176.439 -5.52292 13.1113
  endloop
 endfacet

 facet normal 0.977819 0.111861 0.177082
  outer loop
  vertex 176.439 -5.52292 13.1113
  vertex 174.456 -2.82489 22.356
  vertex 175.01 -9.49228 23.5103
  endloop
 endfacet

 facet normal 0.960138 0.279443 -0.00674975
  outer loop
  vertex 181.21 -3.87917 14.6054
  vertex 179.873 0.948929 24.2982
  vertex 180.774 -2.02722 29.2583
  endloop
 endfacet

 facet normal 0.792604 -0.408546 -0.452624
  outer loop
  vertex 177.514 -3.97191 26.9105
  vertex 181.184 -4.36103 33.6881
  vertex 178.239 -6.80422 30.7372
  endloop
 endfacet

 facet normal 0.831592 0.554277 0.0350981
  outer loop
  vertex 177.815 2.38077 29.7571
  vertex 178.759 0.429734 38.1884
  vertex 180.774 -2.02722 29.2583
  endloop
 endfacet

 facet normal 0.129437 -0.915268 0.381485
  outer loop
  vertex 172.49 -10.5616 33.0111
  vertex 178.538 -8.35216 36.26
  vertex 173.706 -7.30462 40.4129
  endloop
 endfacet

 facet normal -0.527574 -0.849071 -0.0272759
  outer loop
  vertex 169.849 -4.94823 41.6653
  vertex 173.706 -7.30462 40.4129
  vertex 173.454 -7.26694 44.102
  endloop
 endfacet

 facet normal 0.369433 -0.703355 0.607298
  outer loop
  vertex 176.277 -5.20223 41.2838
  vertex 173.706 -7.30462 40.4129
  vertex 178.538 -8.35216 36.26
  endloop
 endfacet

 facet normal -0.594994 -0.600267 -0.534474
  outer loop
  vertex 171.262 -12.01 51.8698
  vertex 173.454 -7.26694 44.102
  vertex 173.111 -12.1544 49.9735
  endloop
 endfacet

 facet normal 0.991413 -0.110304 0.0702371
  outer loop
  vertex 177.145 -8.05322 50.0649
  vertex 177.312 -4.97192 52.5461
  vertex 176.619 -11.1085 52.7034
  endloop
 endfacet

 facet normal 0.138958 -0.976721 0.163424
  outer loop
  vertex 171.262 -12.01 51.8698
  vertex 176.619 -11.1085 52.7034
  vertex 173.675 -11.25 54.3601
  endloop
 endfacet

 facet normal 0.369861 -0.708987 0.60045
  outer loop
  vertex 171.546 -6.93292 55.9747
  vertex 173.859 -6.72434 54.7966
  vertex 175.808 -4.90504 55.7443
  endloop
 endfacet

 facet normal 0 0 -1
  outer loop
  vertex 177.641 -1.33211 10.4459
  vertex 174.019 9.3632 10.4459
  vertex 178.55 2.13215 10.4459
  endloop
 endfacet

 facet normal 0.826538 -0.530876 -0.187096
  outer loop
  vertex 177.5 4.3859 15.0379
  vertex 177.466 3.15726 18.3752
  vertex 175.275 0.205388 17.0709
  endloop
 endfacet

 facet normal 0 0 -1
  outer loop
  vertex 178.55 2.13215 10.4459
  vertex 174.019 9.3632 10.4459
  vertex 178.644 5.74352 10.4459
  endloop
 endfacet

 facet normal 0.654757 -0.0617414 0.753314
  outer loop
  vertex 175.349 2.40747 22.7788
  vertex 177.699 6.54832 21.075
  vertex 174.148 7.53015 24.2423
  endloop
 endfacet

 facet normal 0.973462 0.228837 -0.00227929
  outer loop
  vertex 174.148 7.53015 24.2423
  vertex 175.074 3.66502 31.5808
  vertex 175.349 2.40747 22.7788
  endloop
 endfacet

 facet normal 0.53582 0.761474 0.364765
  outer loop
  vertex 175.963 9.98706 16.4467
  vertex 174.148 7.53015 24.2423
  vertex 177.699 6.54832 21.075
  endloop
 endfacet

 facet normal 0.264312 0.947632 -0.179253
  outer loop
  vertex 175.074 3.66502 31.5808
  vertex 179.873 0.948929 24.2982
  vertex 178.508 -0.375529 15.2837
  endloop
 endfacet

 facet normal -0.00450159 0.976785 0.214174
  outer loop
  vertex 168.851 3.71494 39.3538
  vertex 172.742 3.12539 42.1244
  vertex 175.491 4.35679 36.5661
  endloop
 endfacet

 facet normal 0.0577493 0.866845 0.495223
  outer loop
  vertex 172.971 0.892219 53.8155
  vertex 174.766 2.70616 50.431
  vertex 169.864 3.26615 50.0225
  endloop
 endfacet

 facet normal 0.486448 -0.804902 0.339855
  outer loop
  vertex 176.197 1.51862 58.1138
  vertex 176.102 -0.622585 53.1793
  vertex 178.516 2.61811 57.3983
  endloop
 endfacet

 facet normal -0.804248 0.346105 0.483111
  outer loop
  vertex 167.788 -1.85779 43.9699
  vertex 168.394 1.33199 42.6929
  vertex 164.896 0.564853 37.4203
  endloop
 endfacet

 facet normal 0.232729 0.960471 -0.152748
  outer loop
  vertex 175.074 3.66502 31.5808
  vertex 171.872 5.1012 35.7332
  vertex 175.491 4.35679 36.5661
  endloop
 endfacet

 facet normal -0.259131 -0.715525 -0.648749
  outer loop
  vertex 159.919 -3.27407 14.0722
  vertex 157.044 -2.97802 14.8943
  vertex 156.636 1.20271 10.4459
  endloop
 endfacet

 facet normal -0.961084 -0.00858889 0.276124
  outer loop
  vertex 159.23 -4.66745 22.4506
  vertex 158.492 -3.24256 19.9272
  vertex 157.044 -2.97802 14.8943
  endloop
 endfacet

 facet normal 0.124927 -0.958855 -0.25493
  outer loop
  vertex 164.038 -7.10583 20.2125
  vertex 163.033 -5.47492 13.5859
  vertex 168.939 -4.83911 14.0886
  endloop
 endfacet

 facet normal 0.255567 -0.964925 0.0600537
  outer loop
  vertex 167.079 -4.82125 22.289
  vertex 168.939 -4.83911 14.0886
  vertex 171.031 -4.02592 18.2528
  endloop
 endfacet

 facet normal -0.96071 -0.234532 0.148431
  outer loop
  vertex 158.492 -3.24256 19.9272
  vertex 159.23 -4.66745 22.4506
  vertex 158.654 0.94591 27.591
  endloop
 endfacet

 facet normal -0.770516 -0.471692 0.428732
  outer loop
  vertex 159.23 -4.66745 22.4506
  vertex 160.034 0.986489 30.1158
  vertex 158.654 0.94591 27.591
  endloop
 endfacet

 facet normal 0.420119 -0.750785 0.509727
  outer loop
  vertex 159.23 -4.66745 22.4506
  vertex 161.425 -4.3979 21.0387
  vertex 160.034 0.986489 30.1158
  endloop
 endfacet

 facet normal -0.779902 -0.610952 -0.135984
  outer loop
  vertex 170.332 -8.23157 28.1074
  vertex 167.628 -4.80596 28.2259
  vertex 171.802 -7.33107 15.6301
  endloop
 endfacet

 facet normal -0.511708 -0.79936 0.314926
  outer loop
  vertex 164.005 -4.19645 23.8866
  vertex 167.628 -4.80596 28.2259
  vertex 164.896 0.564853 37.4203
  endloop
 endfacet

 facet normal -0.907848 -0.304587 0.288165
  outer loop
  vertex 164.896 0.564853 37.4203
  vertex 166.48 -5.16097 36.3572
  vertex 167.788 -1.85779 43.9699
  endloop
 endfacet

 facet normal -0.982671 0.136277 -0.125647
  outer loop
  vertex 168.394 1.33199 42.6929
  vertex 167.788 -1.85779 43.9699
  vertex 167.115 0.684263 51.993
  endloop
 endfacet

 facet normal 0.0282717 -0.434286 0.900331
  outer loop
  vertex 170.865 -7.97866 53.8268
  vertex 167.945 -7.23633 54.2766
  vertex 171.262 -12.01 51.8698
  endloop
 endfacet

 facet normal -0.22718 0.912133 0.341178
  outer loop
  vertex 164.908 -2.19901 58.232
  vertex 167.115 0.684263 51.993
  vertex 163.188 -1.44657 55.0753
  endloop
 endfacet

 facet normal -0.267821 0.538046 0.799236
  outer loop
  vertex 169.297 -2.74615 55.0336
  vertex 172.971 0.892219 53.8155
  vertex 167.115 0.684263 51.993
  endloop
 endfacet

 facet normal -0.882932 -0.0704751 0.464182
  outer loop
  vertex 163.188 -1.44657 55.0753
  vertex 164.288 -4.96711 56.6322
  vertex 164.908 -2.19901 58.232
  endloop
 endfacet

 facet normal 0.163732 0.846811 -0.506066
  outer loop
  vertex 159.856 12.1016 10.4459
  vertex 168.539 12.9017 14.5941
  vertex 174.019 9.3632 10.4459
  endloop
 endfacet

 facet normal -0.0540487 0.995421 -0.0788465
  outer loop
  vertex 159.856 12.1016 10.4459
  vertex 167.792 13.3488 20.7513
  vertex 168.539 12.9017 14.5941
  endloop
 endfacet

 facet normal -0.327753 0.930387 0.164191
  outer loop
  vertex 159.919 1.55591 26.661
  vertex 158.654 0.94591 27.591
  vertex 160.034 0.986489 30.1158
  endloop
 endfacet

 facet normal 0.99134 -0.0755854 0.107391
  outer loop
  vertex 176.439 -5.52292 13.1113
  vertex 175.01 -9.49228 23.5103
  vertex 175.957 -9.22051 14.956
  endloop
 endfacet

 facet normal 0 0 -1
  outer loop
  vertex 178.277 -8.27991 10.4459
  vertex 171.581 -9.56287 10.4459
  vertex 171.718 -3.42658 10.4459
  endloop
 endfacet

 facet normal 0 0 -1
  outer loop
  vertex 181.43 -7.44166 10.4459
  vertex 178.277 -8.27991 10.4459
  vertex 183.688 -5.07085 10.4459
  endloop
 endfacet

 facet normal 0.773751 -0.231119 0.589825
  outer loop
  vertex 178.108 -7.35418 12.8653
  vertex 175.957 -9.22051 14.956
  vertex 176.25 -11.1157 13.8293
  endloop
 endfacet

 facet normal -0.264176 -0.821175 0.505848
  outer loop
  vertex 176.439 -5.52292 13.1113
  vertex 179.496 -5.75119 14.3371
  vertex 174.964 -2.09952 17.8984
  endloop
 endfacet

 facet normal 0.508586 0.23168 0.829256
  outer loop
  vertex 178.508 -0.375529 15.2837
  vertex 181.21 -3.87917 14.6054
  vertex 183.04 -1.78013 12.8963
  endloop
 endfacet

 facet normal 0.565615 -0.607963 -0.55719
  outer loop
  vertex 177.514 -3.97191 26.9105
  vertex 178.239 -6.80422 30.7372
  vertex 174.496 -8.18935 28.4484
  endloop
 endfacet

 facet normal 0.6637 -0.634695 -0.39581
  outer loop
  vertex 177.514 -3.97191 26.9105
  vertex 180.774 -2.02722 29.2583
  vertex 181.184 -4.36103 33.6881
  endloop
 endfacet

 facet normal 0.62195 -0.781436 0.0503611
  outer loop
  vertex 173.706 -7.30462 40.4129
  vertex 176.277 -5.20223 41.2838
  vertex 173.454 -7.26694 44.102
  endloop
 endfacet

 facet normal 0.830263 -0.220414 0.511938
  outer loop
  vertex 178.538 -8.35216 36.26
  vertex 181.184 -4.36103 33.6881
  vertex 176.277 -5.20223 41.2838
  endloop
 endfacet

 facet normal 0.329238 -0.888048 -0.320896
  outer loop
  vertex 176.277 -5.20223 41.2838
  vertex 177.145 -8.05322 50.0649
  vertex 173.454 -7.26694 44.102
  endloop
 endfacet

 facet normal 0.781814 -0.332071 -0.527727
  outer loop
  vertex 173.454 -7.26694 44.102
  vertex 177.145 -8.05322 50.0649
  vertex 175.059 -11.6977 49.2668
  endloop
 endfacet

 facet normal 0.261454 -0.897868 0.354225
  outer loop
  vertex 170.865 -7.97866 53.8268
  vertex 173.859 -6.72434 54.7966
  vertex 171.546 -6.93292 55.9747
  endloop
 endfacet

 facet normal -0.801558 0.0305411 0.597137
  outer loop
  vertex 176.197 1.51862 58.1138
  vertex 172.971 0.892219 53.8155
  vertex 174.144 -1.86861 55.5311
  endloop
 endfacet

 facet normal 0.722884 -0.638865 0.26323
  outer loop
  vertex 176.102 -0.622585 53.1793
  vertex 176.197 1.51862 58.1138
  vertex 174.144 -1.86861 55.5311
  endloop
 endfacet

 facet normal -0.0311091 0.932657 -0.35942
  outer loop
  vertex 175.275 0.205388 17.0709
  vertex 175.349 2.40747 22.7788
  vertex 178.508 -0.375529 15.2837
  endloop
 endfacet

 facet normal 0.929206 -0.357818 0.0924252
  outer loop
  vertex 178.2 2.15545 14.0515
  vertex 178.55 2.13215 10.4459
  vertex 179.312 4.90156 13.5018
  endloop
 endfacet

 facet normal 0.289772 0.750577 0.593857
  outer loop
  vertex 177.5 4.3859 15.0379
  vertex 179.312 4.90156 13.5018
  vertex 174.019 9.3632 10.4459
  endloop
 endfacet

 facet normal 0.567394 0.819201 -0.0835089
  outer loop
  vertex 174.148 7.53015 24.2423
  vertex 168.098 11.769 24.7165
  vertex 172.857 8.91358 29.0459
  endloop
 endfacet

 facet normal 0.331546 0.930313 -0.156831
  outer loop
  vertex 175.074 3.66502 31.5808
  vertex 175.491 4.35679 36.5661
  vertex 177.815 2.38077 29.7571
  endloop
 endfacet

 facet normal 0.60233 0.676414 0.423866
  outer loop
  vertex 175.491 4.35679 36.5661
  vertex 176.784 0.265655 41.2574
  vertex 178.759 0.429734 38.1884
  endloop
 endfacet

 facet normal 0.0890851 0.90309 0.420111
  outer loop
  vertex 171.872 5.1012 35.7332
  vertex 168.851 3.71494 39.3538
  vertex 175.491 4.35679 36.5661
  endloop
 endfacet

 facet normal 0.561283 0.822121 -0.0952765
  outer loop
  vertex 174.766 2.70616 50.431
  vertex 176.784 0.265655 41.2574
  vertex 172.742 3.12539 42.1244
  endloop
 endfacet

 facet normal -0.260707 0.80235 0.536904
  outer loop
  vertex 168.394 1.33199 42.6929
  vertex 172.742 3.12539 42.1244
  vertex 168.851 3.71494 39.3538
  endloop
 endfacet

 facet normal -0.761427 -0.604571 0.233929
  outer loop
  vertex 162.995 -6.64272 10.4459
  vertex 164.649 -7.63945 13.2512
  vertex 163.033 -5.47492 13.5859
  endloop
 endfacet

 facet normal -0.960676 0.0151951 0.277257
  outer loop
  vertex 156.342 2.27636 12.1747
  vertex 157.044 -2.97802 14.8943
  vertex 158.492 -3.24256 19.9272
  endloop
 endfacet

 facet normal 0.0160952 -0.141056 0.989871
  outer loop
  vertex 164.649 -7.63945 13.2512
  vertex 168.045 -7.00411 13.2865
  vertex 163.033 -5.47492 13.5859
  endloop
 endfacet

 facet normal -0.739992 0.596662 -0.310494
  outer loop
  vertex 158.492 -3.24256 19.9272
  vertex 158.654 0.94591 27.591
  vertex 159.47 -2.64356 18.7472
  endloop
 endfacet

 facet normal -0.601839 0.719086 -0.347427
  outer loop
  vertex 159.47 -2.64356 18.7472
  vertex 158.654 0.94591 27.591
  vertex 159.919 1.55591 26.661
  endloop
 endfacet

 facet normal -0.938359 -0.280442 0.202076
  outer loop
  vertex 159.47 -2.64356 18.7472
  vertex 159.919 1.55591 26.661
  vertex 157.698 4.31637 20.1779
  endloop
 endfacet

 facet normal -0.526934 -0.668585 0.524722
  outer loop
  vertex 161.425 -4.3979 21.0387
  vertex 164.038 -7.10583 20.2125
  vertex 164.005 -4.19645 23.8866
  endloop
 endfacet

 facet normal -0.955802 0.282318 -0.0820943
  outer loop
  vertex 156.636 1.20271 10.4459
  vertex 159.034 9.9542 12.6244
  vertex 159.856 12.1016 10.4459
  endloop
 endfacet

 facet normal -0.682612 0.635798 0.360279
  outer loop
  vertex 164.896 0.564853 37.4203
  vertex 168.394 1.33199 42.6929
  vertex 168.851 3.71494 39.3538
  endloop
 endfacet

 facet normal -0.434117 -0.899637 0.0468576
  outer loop
  vertex 176.084 -11.7357 10.4459
  vertex 173.322 -10.2475 13.43
  vertex 171.581 -9.56287 10.4459
  endloop
 endfacet

 facet normal -0.265438 -0.522615 0.810195
  outer loop
  vertex 173.322 -10.2475 13.43
  vertex 176.25 -11.1157 13.8293
  vertex 175.957 -9.22051 14.956
  endloop
 endfacet

 facet normal 0.488873 0.337589 0.804386
  outer loop
  vertex 175.957 -9.22051 14.956
  vertex 178.108 -7.35418 12.8653
  vertex 176.439 -5.52292 13.1113
  endloop
 endfacet

 facet normal -0.362278 -0.440617 0.821347
  outer loop
  vertex 176.439 -5.52292 13.1113
  vertex 178.108 -7.35418 12.8653
  vertex 179.496 -5.75119 14.3371
  endloop
 endfacet

 facet normal 0.841351 -0.0767795 0.535008
  outer loop
  vertex 176.277 -5.20223 41.2838
  vertex 181.184 -4.36103 33.6881
  vertex 178.759 0.429734 38.1884
  endloop
 endfacet

 facet normal 0.851786 -0.418756 -0.314808
  outer loop
  vertex 175.059 -11.6977 49.2668
  vertex 177.145 -8.05322 50.0649
  vertex 176.619 -11.1085 52.7034
  endloop
 endfacet

 facet normal 0.560379 -0.0421619 0.827162
  outer loop
  vertex 176.619 -11.1085 52.7034
  vertex 177.312 -4.97192 52.5461
  vertex 173.859 -6.72434 54.7966
  endloop
 endfacet

 facet normal 0.889129 -0.176934 0.422071
  outer loop
  vertex 178.333 -1.28299 51.9433
  vertex 175.808 -4.90504 55.7443
  vertex 177.312 -4.97192 52.5461
  endloop
 endfacet

 facet normal -0.458448 0.861433 0.218536
  outer loop
  vertex 172.971 0.892219 53.8155
  vertex 176.197 1.51862 58.1138
  vertex 174.766 2.70616 50.431
  endloop
 endfacet

 facet normal -0.508287 -0.785042 0.354053
  outer loop
  vertex 169.849 -4.94823 41.6653
  vertex 166.48 -5.16097 36.3572
  vertex 172.49 -10.5616 33.0111
  endloop
 endfacet

 facet normal 0.976556 0.158188 -0.145994
  outer loop
  vertex 178.333 -1.28299 51.9433
  vertex 177.592 0.114214 48.5058
  vertex 178.516 2.61811 57.3983
  endloop
 endfacet

 facet normal 0.152264 0.824621 0.544808
  outer loop
  vertex 156.342 2.27636 12.1747
  vertex 158.492 -3.24256 19.9272
  vertex 159.47 -2.64356 18.7472
  endloop
 endfacet

 facet normal -0.148594 -0.869759 0.470573
  outer loop
  vertex 167.945 -7.23633 54.2766
  vertex 170.865 -7.97866 53.8268
  vertex 171.546 -6.93292 55.9747
  endloop
 endfacet

 facet normal 0.460086 -0.519278 0.720188
  outer loop
  vertex 164.288 -4.96711 56.6322
  vertex 169.297 -2.74615 55.0336
  vertex 164.908 -2.19901 58.232
  endloop
 endfacet

 facet normal 0.445144 -0.878269 0.174614
  outer loop
  vertex 164.288 -4.96711 56.6322
  vertex 165.609 -5.41584 51.0084
  vertex 169.297 -2.74615 55.0336
  endloop
 endfacet

 facet normal 0.896729 -0.388895 0.211275
  outer loop
  vertex 176.25 -11.1157 13.8293
  vertex 178.277 -8.27991 10.4459
  vertex 178.108 -7.35418 12.8653
  endloop
 endfacet

 facet normal 0.471535 -0.842157 -0.261584
  outer loop
  vertex 178.538 -8.35216 36.26
  vertex 174.496 -8.18935 28.4484
  vertex 178.239 -6.80422 30.7372
  endloop
 endfacet

endsolid AssimpScene
